<?xml version="1.0" encoding="UTF-8" standalone="no"?>
<svg
   xmlns:dc="http://purl.org/dc/elements/1.1/"
   xmlns:cc="http://creativecommons.org/ns#"
   xmlns:rdf="http://www.w3.org/1999/02/22-rdf-syntax-ns#"
   xmlns:svg="http://www.w3.org/2000/svg"
   xmlns="http://www.w3.org/2000/svg"
   xmlns:sodipodi="http://sodipodi.sourceforge.net/DTD/sodipodi-0.dtd"
   xmlns:inkscape="http://www.inkscape.org/namespaces/inkscape"
   width="24"
   height="24"
   viewBox="0 0 24 24"
   version="1.1"
   id="svg3729"
   sodipodi:docname="baseline-favorite_border-24px.svg"
   inkscape:version="0.92.4 (5da689c313, 2019-01-14)">
  <metadata
     id="metadata3735">
    <rdf:RDF>
      <cc:Work
         rdf:about="">
        <dc:format>image/svg+xml</dc:format>
        <dc:type
           rdf:resource="http://purl.org/dc/dcmitype/StillImage" />
      </cc:Work>
    </rdf:RDF>
  </metadata>
  <defs
     id="defs3733" />
  <sodipodi:namedview
     pagecolor="#ffffff"
     bordercolor="#666666"
     borderopacity="1"
     objecttolerance="10"
     gridtolerance="10"
     guidetolerance="10"
     inkscape:pageopacity="0"
     inkscape:pageshadow="2"
     inkscape:window-width="1920"
     inkscape:window-height="1027"
     id="namedview3731"
     showgrid="false"
     inkscape:zoom="35.75"
     inkscape:cx="12"
     inkscape:cy="12"
     inkscape:window-x="-8"
     inkscape:window-y="-8"
     inkscape:window-maximized="1"
     inkscape:current-layer="svg3729" />
  <path
     d="M0 0h24v24H0z"
     fill="none"
     id="path3725" />
  <path
     d="M16.5 3c-1.74 0-3.41.81-4.5 2.09C10.91 3.81 9.24 3 7.5 3 4.42 3 2 5.42 2 8.5c0 3.78 3.4 6.86 8.55 11.54L12 21.35l1.45-1.32C18.6 15.36 22 12.28 22 8.5 22 5.42 19.58 3 16.5 3zm-4.4 15.55l-.1.1-.1-.1C7.14 14.24 4 11.39 4 8.5 4 6.5 5.5 5 7.5 5c1.54 0 3.04.99 3.57 2.36h1.87C13.46 5.99 14.96 5 16.5 5c2 0 3.5 1.5 3.5 3.5 0 2.89-3.14 5.74-7.9 10.05z"
     id="path3727" />
  <path
     style="fill:#ff0000;stroke-width:0.02797203"
     d="M 11.69172,21.057261 C 11.529859,20.908075 10.861366,20.299568 10.206181,19.705023 6.0724159,15.953853 4.5113237,14.327127 3.378431,12.59021 2.0536867,10.559151 1.6917059,8.6025315 2.2968741,6.7440559 3.2210956,3.9057659 6.2992878,2.3618576 9.2061248,3.2786295 10.157188,3.5785804 10.950943,4.0568513 11.657343,4.7555925 L 12,5.0945348 12.342657,4.756675 c 1.502631,-1.4815925 3.582144,-2.066006 5.564536,-1.5638227 1.783407,0.4517761 3.221089,1.7974811 3.795944,3.5530948 0.391363,1.1952277 0.374554,2.4700574 -0.04952,3.7556829 -0.663748,2.012216 -2.217768,3.975973 -5.738202,7.25115 -0.789015,0.734047 -3.909283,3.579862 -3.922197,3.577209 -0.004,-8.14e-4 -0.139635,-0.123542 -0.301498,-0.272728 z m 1.17672,-3.184967 c 1.913669,-1.738486 3.039812,-2.808604 3.967992,-3.770584 1.940721,-2.011394 2.889923,-3.519431 3.124407,-4.9638798 0.02142,-0.1319605 0.039,-0.4176498 0.03905,-0.6348654 C 20.000061,7.8566333 19.892177,7.3838445 19.622729,6.8501933 19.216102,6.0448554 18.548004,5.4713197 17.677188,5.1800253 17.295716,5.0524198 16.935762,4.9960556 16.501433,4.9959167 16.063475,4.9957768 15.718775,5.0522931 15.287504,5.1949508 14.285977,5.5262404 13.442967,6.2482985 13.021993,7.1354165 l -0.09967,0.210038 H 12.002728 11.083134 L 10.980512,7.1293617 C 10.818356,6.7879066 10.586225,6.4638632 10.295695,6.1733894 9.8329197,5.7107043 9.3276269,5.3984265 8.7124959,5.1949508 8.2812249,5.0522931 7.9365253,4.9957766 7.4985673,4.9959167 6.5044327,4.9962347 5.6293698,5.3488639 4.9805046,6.010635 4.7021363,6.2945401 4.553091,6.5019759 4.3772712,6.8501933 c -0.2694479,0.5336512 -0.377339,1.00644 -0.3771647,1.6527715 1.174e-4,0.4329888 0.040007,0.7357071 0.1500069,1.1383619 0.4664751,1.7075363 1.8785982,3.4970273 5.2210936,6.6163513 0.775046,0.723298 2.607581,2.388476 2.628527,2.388476 0.0093,0 0.400195,-0.348237 0.868706,-0.77386 z"
     id="path3737"
     inkscape:connector-curvature="0" />
</svg>
